<svg width="1668" height="395" viewBox="0 0 1668 395" fill="none" xmlns="http://www.w3.org/2000/svg">
<path d="M1550.66 1H51.3371C23.5367 1 1 18.551 1 40.2012V353.811C1 375.461 23.5367 393.012 51.3371 393.012H1550.66C1578.46 393.012 1601 375.461 1601 353.811V40.2012C1601 18.551 1578.46 1 1550.66 1Z" stroke="#DDD9CF" stroke-width="2"/>
<path d="M551.6 270V148.6H505V126H622.3V148.6H575.7V270H551.6ZM648.289 270V126H707.789C709.189 126 710.989 126.067 713.189 126.2C715.389 126.267 717.422 126.467 719.289 126.8C727.622 128.067 734.489 130.833 739.889 135.1C745.356 139.367 749.389 144.767 751.989 151.3C754.656 157.767 755.989 164.967 755.989 172.9C755.989 184.633 753.022 194.733 747.089 203.2C741.156 211.6 732.056 216.8 719.789 218.8L709.489 219.7H672.389V270H648.289ZM730.989 270L702.589 211.4L727.089 206L758.289 270H730.989ZM672.389 197.2H706.789C708.122 197.2 709.622 197.133 711.289 197C712.956 196.867 714.489 196.6 715.889 196.2C719.889 195.2 723.022 193.433 725.289 190.9C727.622 188.367 729.256 185.5 730.189 182.3C731.189 179.1 731.689 175.967 731.689 172.9C731.689 169.833 731.189 166.7 730.189 163.5C729.256 160.233 727.622 157.333 725.289 154.8C723.022 152.267 719.889 150.5 715.889 149.5C714.489 149.1 712.956 148.867 711.289 148.8C709.622 148.667 708.122 148.6 706.789 148.6H672.389V197.2ZM780.32 270L825.72 126H861.02L906.42 270H881.62L840.42 140.8H845.82L805.12 270H780.32ZM805.62 238.8V216.3H881.22V238.8H805.62ZM991.494 273C977.094 273 964.76 269.867 954.494 263.6C944.227 257.267 936.327 248.467 930.794 237.2C925.327 225.933 922.594 212.867 922.594 198C922.594 183.133 925.327 170.067 930.794 158.8C936.327 147.533 944.227 138.767 954.494 132.5C964.76 126.167 977.094 123 991.494 123C1008.09 123 1021.93 127.167 1032.99 135.5C1044.06 143.767 1051.83 154.933 1056.29 169L1031.99 175.7C1029.19 166.3 1024.43 158.967 1017.69 153.7C1010.96 148.367 1002.23 145.7 991.494 145.7C981.827 145.7 973.76 147.867 967.294 152.2C960.894 156.533 956.06 162.633 952.794 170.5C949.594 178.3 947.96 187.467 947.894 198C947.894 208.533 949.494 217.733 952.694 225.6C955.96 233.4 960.827 239.467 967.294 243.8C973.76 248.133 981.827 250.3 991.494 250.3C1002.23 250.3 1010.96 247.633 1017.69 242.3C1024.43 236.967 1029.19 229.633 1031.99 220.3L1056.29 227C1051.83 241.067 1044.06 252.267 1032.99 260.6C1021.93 268.867 1008.09 273 991.494 273ZM1088.25 270V126H1112.35V192.8L1169.85 126H1199.45L1137.55 196.6L1203.65 270H1173.05L1112.35 202.8V270H1088.25Z" fill="white"/>
<path d="M1280 270V126H1366.7V150.1H1304.1V186H1354.7V210H1304.1V270H1280ZM1396.69 270V126H1420.79V270H1396.69ZM1495.34 270V148.6H1448.74V126H1566.04V148.6H1519.44V270H1495.34Z" fill="#B8F23D"/>
<path d="M528.082 337V311.545H536.683C538.68 311.545 540.313 311.906 541.58 312.627C542.856 313.339 543.801 314.305 544.414 315.523C545.027 316.741 545.334 318.1 545.334 319.599C545.334 321.099 545.027 322.462 544.414 323.689C543.809 324.915 542.873 325.893 541.605 326.622C540.337 327.343 538.713 327.703 536.733 327.703H530.568V324.969H536.634C538.001 324.969 539.099 324.733 539.927 324.26C540.756 323.788 541.357 323.15 541.729 322.346C542.111 321.534 542.301 320.619 542.301 319.599C542.301 318.58 542.111 317.669 541.729 316.865C541.357 316.061 540.752 315.432 539.915 314.976C539.078 314.512 537.968 314.28 536.584 314.28H531.165V337H528.082ZM557.649 337V311.545H566.25C568.239 311.545 569.871 311.885 571.147 312.565C572.423 313.236 573.368 314.16 573.981 315.336C574.594 316.513 574.901 317.851 574.901 319.351C574.901 320.851 574.594 322.181 573.981 323.341C573.368 324.501 572.427 325.412 571.159 326.075C569.892 326.73 568.272 327.057 566.3 327.057H559.34V324.273H566.2C567.559 324.273 568.653 324.074 569.482 323.676C570.318 323.278 570.923 322.715 571.296 321.986C571.677 321.248 571.868 320.37 571.868 319.351C571.868 318.332 571.677 317.441 571.296 316.679C570.915 315.916 570.306 315.328 569.469 314.914C568.632 314.491 567.526 314.28 566.151 314.28H560.732V337H557.649ZM569.631 325.565L575.895 337H572.315L566.151 325.565H569.631ZM587.387 337V311.545H602.749V314.28H590.469V322.881H601.954V325.615H590.469V334.266H602.948V337H587.387ZM636.138 319.5H633.055C632.873 318.613 632.554 317.835 632.098 317.163C631.651 316.492 631.104 315.929 630.458 315.473C629.82 315.009 629.111 314.661 628.332 314.429C627.554 314.197 626.741 314.081 625.896 314.081C624.355 314.081 622.959 314.47 621.708 315.249C620.465 316.028 619.475 317.176 618.737 318.692C618.008 320.208 617.643 322.069 617.643 324.273C617.643 326.477 618.008 328.337 618.737 329.853C619.475 331.37 620.465 332.517 621.708 333.296C622.959 334.075 624.355 334.464 625.896 334.464C626.741 334.464 627.554 334.348 628.332 334.116C629.111 333.884 629.82 333.541 630.458 333.085C631.104 332.621 631.651 332.053 632.098 331.382C632.554 330.703 632.873 329.924 633.055 329.045H636.138C635.906 330.346 635.483 331.511 634.87 332.538C634.257 333.565 633.495 334.44 632.583 335.161C631.672 335.873 630.648 336.416 629.513 336.789C628.386 337.162 627.181 337.348 625.896 337.348C623.725 337.348 621.795 336.818 620.104 335.757C618.414 334.696 617.084 333.188 616.115 331.233C615.145 329.277 614.661 326.957 614.661 324.273C614.661 321.588 615.145 319.268 616.115 317.312C617.084 315.357 618.414 313.849 620.104 312.788C621.795 311.728 623.725 311.197 625.896 311.197C627.181 311.197 628.386 311.384 629.513 311.757C630.648 312.13 631.672 312.676 632.583 313.397C633.495 314.11 634.257 314.98 634.87 316.007C635.483 317.027 635.906 318.191 636.138 319.5ZM651.551 311.545V337H648.469V311.545H651.551ZM679.002 317.909C678.853 316.65 678.248 315.672 677.187 314.976C676.127 314.28 674.826 313.932 673.285 313.932C672.158 313.932 671.172 314.114 670.326 314.479C669.49 314.843 668.835 315.345 668.363 315.983C667.899 316.621 667.667 317.346 667.667 318.158C667.667 318.837 667.828 319.421 668.151 319.91C668.483 320.391 668.905 320.793 669.419 321.116C669.933 321.431 670.471 321.692 671.035 321.899C671.598 322.098 672.116 322.259 672.589 322.384L675.174 323.08C675.837 323.254 676.574 323.494 677.386 323.8C678.206 324.107 678.989 324.525 679.735 325.056C680.489 325.578 681.111 326.249 681.6 327.069C682.088 327.89 682.333 328.896 682.333 330.089C682.333 331.465 681.972 332.708 681.252 333.818C680.539 334.929 679.495 335.811 678.119 336.466C676.752 337.12 675.091 337.447 673.135 337.447C671.312 337.447 669.734 337.153 668.4 336.565C667.074 335.977 666.03 335.156 665.268 334.104C664.514 333.052 664.087 331.83 663.988 330.438H667.169C667.252 331.399 667.575 332.194 668.139 332.824C668.711 333.445 669.432 333.909 670.302 334.216C671.18 334.514 672.124 334.663 673.135 334.663C674.312 334.663 675.368 334.473 676.305 334.092C677.241 333.702 677.983 333.164 678.53 332.476C679.076 331.78 679.35 330.968 679.35 330.04C679.35 329.195 679.114 328.507 678.641 327.977C678.169 327.446 677.548 327.015 676.777 326.684C676.006 326.353 675.174 326.062 674.279 325.814L671.147 324.919C669.158 324.347 667.584 323.531 666.424 322.471C665.264 321.41 664.684 320.022 664.684 318.307C664.684 316.882 665.069 315.639 665.84 314.578C666.618 313.509 667.662 312.681 668.972 312.092C670.289 311.496 671.76 311.197 673.384 311.197C675.025 311.197 676.483 311.492 677.759 312.08C679.035 312.66 680.046 313.455 680.792 314.466C681.546 315.477 681.943 316.625 681.985 317.909H679.002ZM697.833 311.545V337H694.751V311.545H697.833ZM732.841 324.273C732.841 326.957 732.356 329.277 731.387 331.233C730.417 333.188 729.087 334.696 727.397 335.757C725.706 336.818 723.776 337.348 721.605 337.348C719.434 337.348 717.503 336.818 715.813 335.757C714.123 334.696 712.793 333.188 711.823 331.233C710.854 329.277 710.369 326.957 710.369 324.273C710.369 321.588 710.854 319.268 711.823 317.312C712.793 315.357 714.123 313.849 715.813 312.788C717.503 311.728 719.434 311.197 721.605 311.197C723.776 311.197 725.706 311.728 727.397 312.788C729.087 313.849 730.417 315.357 731.387 317.312C732.356 319.268 732.841 321.588 732.841 324.273ZM729.858 324.273C729.858 322.069 729.489 320.208 728.752 318.692C728.022 317.176 727.032 316.028 725.781 315.249C724.538 314.47 723.146 314.081 721.605 314.081C720.064 314.081 718.668 314.47 717.416 315.249C716.173 316.028 715.183 317.176 714.446 318.692C713.717 320.208 713.352 322.069 713.352 324.273C713.352 326.477 713.717 328.337 714.446 329.853C715.183 331.37 716.173 332.517 717.416 333.296C718.668 334.075 720.064 334.464 721.605 334.464C723.146 334.464 724.538 334.075 725.781 333.296C727.032 332.517 728.022 331.37 728.752 329.853C729.489 328.337 729.858 326.477 729.858 324.273ZM765.558 311.545V337H762.575L748.705 317.014H748.456V337H745.374V311.545H748.357L762.277 331.581H762.526V311.545H765.558ZM796.27 337V311.545H811.533V314.28H799.352V322.881H810.389V325.615H799.352V337H796.27ZM827.244 311.545V337H824.162V311.545H827.244ZM839.383 314.28V311.545H858.473V314.28H850.469V337H847.387V314.28H839.383ZM869.189 314.28V311.545H888.279V314.28H880.275V337H877.193V314.28H869.189ZM900.387 337V311.545H915.749V314.28H903.469V322.881H914.953V325.615H903.469V334.266H915.948V337H900.387ZM936.51 337H928.655V311.545H936.858C939.327 311.545 941.44 312.055 943.197 313.074C944.953 314.085 946.3 315.539 947.236 317.437C948.172 319.326 948.64 321.588 948.64 324.223C948.64 326.875 948.168 329.157 947.224 331.071C946.279 332.977 944.903 334.444 943.097 335.471C941.291 336.49 939.095 337 936.51 337ZM931.737 334.266H936.311C938.416 334.266 940.16 333.86 941.544 333.048C942.927 332.236 943.959 331.08 944.638 329.58C945.318 328.08 945.657 326.295 945.657 324.223C945.657 322.168 945.322 320.399 944.651 318.916C943.98 317.424 942.977 316.281 941.643 315.485C940.309 314.682 938.648 314.28 936.659 314.28H931.737V334.266ZM961.295 337.199C960.681 337.199 960.155 336.979 959.716 336.54C959.277 336.101 959.057 335.575 959.057 334.962C959.057 334.348 959.277 333.822 959.716 333.383C960.155 332.944 960.681 332.724 961.295 332.724C961.908 332.724 962.434 332.944 962.873 333.383C963.312 333.822 963.532 334.348 963.532 334.962C963.532 335.368 963.428 335.741 963.221 336.08C963.022 336.42 962.753 336.693 962.413 336.901C962.082 337.099 961.709 337.199 961.295 337.199ZM993.737 337V311.545H1002.64C1004.41 311.545 1005.87 311.852 1007.02 312.465C1008.18 313.07 1009.03 313.886 1009.6 314.914C1010.16 315.933 1010.44 317.064 1010.44 318.307C1010.44 319.401 1010.25 320.304 1009.86 321.016C1009.48 321.729 1008.97 322.292 1008.34 322.707C1007.72 323.121 1007.04 323.428 1006.31 323.626V323.875C1007.09 323.925 1007.88 324.198 1008.66 324.695C1009.45 325.192 1010.11 325.905 1010.64 326.833C1011.17 327.761 1011.44 328.896 1011.44 330.239C1011.44 331.515 1011.15 332.662 1010.57 333.681C1009.99 334.701 1009.07 335.509 1007.82 336.105C1006.57 336.702 1004.94 337 1002.93 337H993.737ZM996.819 334.266H1002.93C1004.95 334.266 1006.38 333.876 1007.22 333.097C1008.08 332.31 1008.5 331.357 1008.5 330.239C1008.5 329.377 1008.28 328.581 1007.84 327.852C1007.4 327.115 1006.78 326.527 1005.97 326.087C1005.15 325.64 1004.19 325.416 1003.08 325.416H996.819V334.266ZM996.819 322.732H1002.54C1003.46 322.732 1004.3 322.549 1005.05 322.185C1005.8 321.82 1006.4 321.306 1006.84 320.643C1007.28 319.981 1007.51 319.202 1007.51 318.307C1007.51 317.188 1007.12 316.239 1006.34 315.461C1005.56 314.673 1004.33 314.28 1002.64 314.28H996.819V322.732ZM1023.85 337V311.545H1039.21V314.28H1026.93V322.881H1038.42V325.615H1026.93V334.266H1039.41V337H1023.85ZM1053.16 337H1049.93L1059.28 311.545H1062.46L1071.81 337H1068.57L1060.97 315.572H1060.77L1053.16 337ZM1054.36 327.057H1067.38V329.791H1054.36V327.057ZM1099.83 311.545H1102.91V328.399C1102.91 330.139 1102.5 331.693 1101.68 333.06C1100.87 334.419 1099.72 335.492 1098.23 336.279C1096.75 337.058 1095.01 337.447 1093.01 337.447C1091.02 337.447 1089.28 337.058 1087.79 336.279C1086.31 335.492 1085.16 334.419 1084.34 333.06C1083.53 331.693 1083.12 330.139 1083.12 328.399V311.545H1086.2V328.151C1086.2 329.393 1086.48 330.5 1087.02 331.469C1087.57 332.43 1088.35 333.188 1089.36 333.744C1090.38 334.29 1091.6 334.564 1093.01 334.564C1094.43 334.564 1095.65 334.29 1096.67 333.744C1097.69 333.188 1098.47 332.43 1099.01 331.469C1099.55 330.5 1099.83 329.393 1099.83 328.151V311.545ZM1115.02 314.28V311.545H1134.11V314.28H1126.11V337H1123.03V314.28H1115.02ZM1149.3 311.545V337H1146.22V311.545H1149.3ZM1162.83 337V311.545H1178.09V314.28H1165.91V322.881H1176.95V325.615H1165.91V337H1162.83ZM1207.43 311.545H1210.51V328.399C1210.51 330.139 1210.1 331.693 1209.28 333.06C1208.47 334.419 1207.32 335.492 1205.84 336.279C1204.35 337.058 1202.61 337.447 1200.62 337.447C1198.62 337.447 1196.88 337.058 1195.4 336.279C1193.91 335.492 1192.76 334.419 1191.94 333.06C1191.13 331.693 1190.72 330.139 1190.72 328.399V311.545H1193.81V328.151C1193.81 329.393 1194.08 330.5 1194.63 331.469C1195.17 332.43 1195.95 333.188 1196.96 333.744C1197.98 334.29 1199.2 334.564 1200.62 334.564C1202.03 334.564 1203.25 334.29 1204.27 333.744C1205.29 333.188 1206.07 332.43 1206.61 331.469C1207.16 330.5 1207.43 329.393 1207.43 328.151V311.545ZM1224.02 337V311.545H1227.1V334.266H1238.93V337H1224.02ZM1251.05 337V311.545H1254.14V334.266H1265.97V337H1251.05ZM1274.71 311.545H1278.24L1285.3 323.428H1285.6L1292.66 311.545H1296.18L1286.99 326.51V337H1283.91V326.51L1274.71 311.545ZM1324.72 337V311.545H1339.98V314.28H1327.8V322.881H1338.83V325.615H1327.8V337H1324.72ZM1355.69 311.545V337H1352.61V311.545H1355.69ZM1389.4 311.545V337H1386.42L1372.55 317.014H1372.3V337H1369.22V311.545H1372.2L1386.12 331.581H1386.37V311.545H1389.4ZM1406 311.545V337H1402.92V311.545H1406ZM1433.46 317.909C1433.31 316.65 1432.7 315.672 1431.64 314.976C1430.58 314.28 1429.28 313.932 1427.74 313.932C1426.61 313.932 1425.63 314.114 1424.78 314.479C1423.94 314.843 1423.29 315.345 1422.82 315.983C1422.35 316.621 1422.12 317.346 1422.12 318.158C1422.12 318.837 1422.28 319.421 1422.61 319.91C1422.94 320.391 1423.36 320.793 1423.87 321.116C1424.39 321.431 1424.93 321.692 1425.49 321.899C1426.05 322.098 1426.57 322.259 1427.04 322.384L1429.63 323.08C1430.29 323.254 1431.03 323.494 1431.84 323.8C1432.66 324.107 1433.44 324.525 1434.19 325.056C1434.94 325.578 1435.56 326.249 1436.05 327.069C1436.54 327.89 1436.79 328.896 1436.79 330.089C1436.79 331.465 1436.43 332.708 1435.71 333.818C1434.99 334.929 1433.95 335.811 1432.57 336.466C1431.21 337.12 1429.54 337.447 1427.59 337.447C1425.77 337.447 1424.19 337.153 1422.85 336.565C1421.53 335.977 1420.48 335.156 1419.72 334.104C1418.97 333.052 1418.54 331.83 1418.44 330.438H1421.62C1421.71 331.399 1422.03 332.194 1422.59 332.824C1423.16 333.445 1423.89 333.909 1424.76 334.216C1425.63 334.514 1426.58 334.663 1427.59 334.663C1428.77 334.663 1429.82 334.473 1430.76 334.092C1431.69 333.702 1432.44 333.164 1432.98 332.476C1433.53 331.78 1433.8 330.968 1433.8 330.04C1433.8 329.195 1433.57 328.507 1433.1 327.977C1432.62 327.446 1432 327.015 1431.23 326.684C1430.46 326.353 1429.63 326.062 1428.73 325.814L1425.6 324.919C1423.61 324.347 1422.04 323.531 1420.88 322.471C1419.72 321.41 1419.14 320.022 1419.14 318.307C1419.14 316.882 1419.52 315.639 1420.29 314.578C1421.07 313.509 1422.12 312.681 1423.43 312.092C1424.74 311.496 1426.21 311.197 1427.84 311.197C1429.48 311.197 1430.94 311.492 1432.21 312.08C1433.49 312.66 1434.5 313.455 1435.25 314.466C1436 315.477 1436.4 316.625 1436.44 317.909H1433.46ZM1449.2 337V311.545H1452.29V322.881H1465.86V311.545H1468.94V337H1465.86V325.615H1452.29V337H1449.2ZM1482.46 337V311.545H1497.82V314.28H1485.55V322.881H1497.03V325.615H1485.55V334.266H1498.02V337H1482.46ZM1518.59 337H1510.73V311.545H1518.93C1521.4 311.545 1523.52 312.055 1525.27 313.074C1527.03 314.085 1528.38 315.539 1529.31 317.437C1530.25 319.326 1530.72 321.588 1530.72 324.223C1530.72 326.875 1530.24 329.157 1529.3 331.071C1528.35 332.977 1526.98 334.444 1525.17 335.471C1523.37 336.49 1521.17 337 1518.59 337ZM1513.81 334.266H1518.39C1520.49 334.266 1522.24 333.86 1523.62 333.048C1525 332.236 1526.03 331.08 1526.71 329.58C1527.39 328.08 1527.73 326.295 1527.73 324.223C1527.73 322.168 1527.4 320.399 1526.73 318.916C1526.06 317.424 1525.05 316.281 1523.72 315.485C1522.38 314.682 1520.72 314.28 1518.73 314.28H1513.81V334.266ZM1543.37 337.199C1542.76 337.199 1542.23 336.979 1541.79 336.54C1541.35 336.101 1541.13 335.575 1541.13 334.962C1541.13 334.348 1541.35 333.822 1541.79 333.383C1542.23 332.944 1542.76 332.724 1543.37 332.724C1543.98 332.724 1544.51 332.944 1544.95 333.383C1545.39 333.822 1545.61 334.348 1545.61 334.962C1545.61 335.368 1545.5 335.741 1545.3 336.08C1545.1 336.42 1544.83 336.693 1544.49 336.901C1544.16 337.099 1543.78 337.199 1543.37 337.199Z" fill="white"/>
<path d="M469.921 81.4744H192.079C187.784 81.4744 184.302 84.9562 184.302 89.2512C184.302 93.5461 187.784 97.0279 192.079 97.0279H469.921C474.216 97.0279 477.698 93.5461 477.698 89.2512C477.698 84.9562 474.216 81.4744 469.921 81.4744Z" fill="#111411"/>
<path d="M467.093 85.7162H194.907C192.955 85.7162 191.372 87.2989 191.372 89.2511C191.372 91.2034 192.955 92.786 194.907 92.786H467.093C469.045 92.786 470.628 91.2034 470.628 89.2511C470.628 87.2989 469.045 85.7162 467.093 85.7162Z" fill="#2B312C"/>
<path d="M332.767 85.7162H194.907C192.955 85.7162 191.372 87.2989 191.372 89.2511C191.372 91.2034 192.955 92.786 194.907 92.786H332.767C334.72 92.786 336.302 91.2034 336.302 89.2511C336.302 87.2989 334.72 85.7162 332.767 85.7162Z" fill="url(#paint0_linear_5_619)"/>
<path d="M467.093 85.7162H339.837C337.885 85.7162 336.302 87.2989 336.302 89.2511C336.302 91.2034 337.885 92.786 339.837 92.786H467.093C469.045 92.786 470.628 91.2034 470.628 89.2511C470.628 87.2989 469.045 85.7162 467.093 85.7162Z" fill="url(#paint1_linear_5_619)"/>
<path d="M187.13 79H184.302C181.374 79 179 81.3739 179 84.3023V94.2C179 97.1284 181.374 99.5023 184.302 99.5023H187.13C190.059 99.5023 192.433 97.1284 192.433 94.2V84.3023C192.433 81.3739 190.059 79 187.13 79Z" fill="#111411"/>
<path d="M477.698 79H474.87C471.941 79 469.567 81.3739 469.567 84.3023V94.2C469.567 97.1284 471.941 99.5023 474.87 99.5023H477.698C480.626 99.5023 483 97.1284 483 94.2V84.3023C483 81.3739 480.626 79 477.698 79Z" fill="#111411"/>
<path d="M224.953 109.047C227.491 109.047 229.549 106.989 229.549 104.451C229.549 101.913 227.491 99.8558 224.953 99.8558C222.415 99.8558 220.358 101.913 220.358 104.451C220.358 106.989 222.415 109.047 224.953 109.047Z" fill="#F4F1E8"/>
<path d="M263.837 109.047C266.375 109.047 268.432 106.989 268.432 104.451C268.432 101.913 266.375 99.8558 263.837 99.8558C261.299 99.8558 259.242 101.913 259.242 104.451C259.242 106.989 261.299 109.047 263.837 109.047Z" fill="#F4F1E8"/>
<path d="M302.721 109.047C305.259 109.047 307.316 106.989 307.316 104.451C307.316 101.913 305.259 99.8558 302.721 99.8558C300.183 99.8558 298.125 101.913 298.125 104.451C298.125 106.989 300.183 109.047 302.721 109.047Z" fill="#F4F1E8"/>
<path d="M359.279 109.047C361.817 109.047 363.874 106.989 363.874 104.451C363.874 101.913 361.817 99.8558 359.279 99.8558C356.741 99.8558 354.684 101.913 354.684 104.451C354.684 106.989 356.741 109.047 359.279 109.047Z" fill="#B8F23D"/>
<path d="M398.163 109.047C400.701 109.047 402.759 106.989 402.759 104.451C402.759 101.913 400.701 99.8558 398.163 99.8558C395.625 99.8558 393.568 101.913 393.568 104.451C393.568 106.989 395.625 109.047 398.163 109.047Z" fill="#B8F23D"/>
<path d="M437.047 109.047C439.584 109.047 441.642 106.989 441.642 104.451C441.642 101.913 439.584 99.8558 437.047 99.8558C434.509 99.8558 432.451 101.913 432.451 104.451C432.451 106.989 434.509 109.047 437.047 109.047Z" fill="#B8F23D"/>
<path d="M224.954 109.047V127.428V109.047Z" fill="black"/>
<path d="M224.954 109.047V127.428" stroke="#F4F1E8" stroke-width="4.24186" stroke-linecap="round"/>
<path d="M263.837 109.047V127.428V109.047Z" fill="black"/>
<path d="M263.837 109.047V127.428" stroke="#F4F1E8" stroke-width="4.24186" stroke-linecap="round"/>
<path d="M302.721 109.047V127.428V109.047Z" fill="black"/>
<path d="M302.721 109.047V127.428" stroke="#F4F1E8" stroke-width="4.24186" stroke-linecap="round"/>
<path d="M359.279 109.047V127.428V109.047Z" fill="black"/>
<path d="M359.279 109.047V127.428" stroke="#B8F23D" stroke-width="4.24186" stroke-linecap="round"/>
<path d="M398.163 109.047V127.428V109.047Z" fill="black"/>
<path d="M398.163 109.047V127.428" stroke="#B8F23D" stroke-width="4.24186" stroke-linecap="round"/>
<path d="M437.047 109.047V127.428V109.047Z" fill="black"/>
<path d="M437.047 109.047V127.428" stroke="#B8F23D" stroke-width="4.24186" stroke-linecap="round"/>
<path d="M201.977 125.66C221.418 116.116 241.921 116.823 263.837 125.66C285.046 116.823 304.488 116.823 323.93 125.66V328.916C308.73 314.07 296.358 314.07 283.279 328.916C269.493 314.07 255.707 314.07 241.921 328.916C228.488 314.07 215.763 314.07 201.977 328.916V125.66Z" fill="url(#paint2_linear_5_619)"/>
<path d="M219.651 129.195C230.256 120.358 241.921 120.358 252.526 129.195V313.009C240.861 300.637 230.61 301.344 219.651 313.009V129.195Z" fill="url(#paint3_linear_5_619)"/>
<path d="M256.768 129.195C267.372 120.358 278.684 120.358 289.289 129.195V313.009C277.977 301.344 267.372 300.637 256.768 313.009V129.195Z" fill="#D9D4C9"/>
<path d="M293.884 129.195C302.721 121.065 312.265 121.065 320.395 129.195V313.009C311.558 302.405 302.721 302.051 293.884 313.009V129.195Z" fill="#F4F1E8"/>
<path d="M320.749 122.126H210.46C202.847 122.126 196.674 128.298 196.674 135.912C196.674 143.525 202.847 149.698 210.46 149.698H320.749C328.363 149.698 334.535 143.525 334.535 135.912C334.535 128.298 328.363 122.126 320.749 122.126Z" fill="#D9D4C9"/>
<path d="M318.981 130.963H212.228C210.471 130.963 209.046 132.387 209.046 134.144C209.046 135.901 210.471 137.326 212.228 137.326H318.981C320.738 137.326 322.163 135.901 322.163 134.144C322.163 132.387 320.738 130.963 318.981 130.963Z" fill="#1A1A1A"/>
<path d="M276.209 293.519V161.411C276.209 159.237 274.785 157.474 273.028 157.474C271.271 157.474 269.847 159.237 269.847 161.411V293.519C269.847 295.693 271.271 297.456 273.028 297.456C274.785 297.456 276.209 295.693 276.209 293.519Z" fill="#1A1A1A"/>
<path d="M334.535 125.66C353.977 116.823 373.419 116.823 392.861 125.66C412.303 116.823 431.744 116.823 451.186 125.66V328.916C437.047 314.07 423.614 314.07 410.182 328.916C396.749 314.07 383.317 314.07 369.884 328.916C357.512 314.777 345.847 314.777 334.535 328.916V125.66Z" fill="#101310"/>
<path d="M345.14 129.195C357.512 119.298 369.884 119.298 382.256 129.195V315.484C369.884 302.051 357.512 302.051 345.14 315.484V129.195Z" fill="#8FD31F"/>
<path d="M385.791 129.195C396.395 120.358 407 120.358 417.604 129.195V315.484C407 302.758 396.395 302.758 385.791 315.484V129.195Z" fill="#B8F23D"/>
<path d="M421.14 129.195C431.744 120.358 441.642 120.358 450.126 129.195V315.484C440.582 303.465 431.037 303.465 421.14 315.484V129.195Z" fill="#B8F23D"/>
<path d="M445.723 122.126H347.068C340.146 122.126 334.535 128.298 334.535 135.912C334.535 143.525 340.146 149.698 347.068 149.698H445.723C452.645 149.698 458.256 143.525 458.256 135.912C458.256 128.298 452.645 122.126 445.723 122.126Z" fill="#8FD31F"/>
<path d="M422.554 191.056H347.261C340.233 191.056 334.535 196.753 334.535 203.781C334.535 210.81 340.233 216.507 347.261 216.507H422.554C429.582 216.507 435.279 210.81 435.279 203.781C435.279 196.753 429.582 191.056 422.554 191.056Z" fill="#8FD31F"/>
<path d="M450.832 130.256H345.846C344.089 130.256 342.665 131.68 342.665 133.437C342.665 135.194 344.089 136.619 345.846 136.619H450.832C452.59 136.619 454.014 135.194 454.014 133.437C454.014 131.68 452.59 130.256 450.832 130.256Z" fill="#0C0F0D"/>
<path d="M420.079 200.247H349.735C348.173 200.247 346.907 201.513 346.907 203.074C346.907 204.636 348.173 205.902 349.735 205.902H420.079C421.641 205.902 422.907 204.636 422.907 203.074C422.907 201.513 421.641 200.247 420.079 200.247Z" fill="#0C0F0D"/>
<g opacity="0.45">
<path d="M329.232 125.66V328.916V125.66Z" fill="black"/>
<path d="M329.232 125.66V328.916" stroke="#050605" stroke-width="6.36279"/>
</g>
<path d="M448.358 343.056H204.804C203.243 343.056 201.977 344.322 201.977 345.884C201.977 347.446 203.243 348.712 204.804 348.712H448.358C449.92 348.712 451.186 347.446 451.186 345.884C451.186 344.322 449.92 343.056 448.358 343.056Z" fill="#111411"/>
<path d="M326.404 343.056H204.804C203.243 343.056 201.977 344.322 201.977 345.884C201.977 347.446 203.243 348.712 204.804 348.712H326.404C327.966 348.712 329.232 347.446 329.232 345.884C329.232 344.322 327.966 343.056 326.404 343.056Z" fill="#F4F1E8"/>
<path d="M448.358 343.056H332.06C330.499 343.056 329.232 344.322 329.232 345.884C329.232 347.446 330.499 348.712 332.06 348.712H448.358C449.92 348.712 451.186 347.446 451.186 345.884C451.186 344.322 449.92 343.056 448.358 343.056Z" fill="#B8F23D"/>
<defs>
<linearGradient id="paint0_linear_5_619" x1="191.372" y1="85.7162" x2="191.372" y2="92.786" gradientUnits="userSpaceOnUse">
<stop stop-color="#FFFDF7"/>
<stop offset="1" stop-color="#E9E4D8"/>
</linearGradient>
<linearGradient id="paint1_linear_5_619" x1="336.302" y1="85.7162" x2="337.044" y2="99.8167" gradientUnits="userSpaceOnUse">
<stop stop-color="#C9FF58"/>
<stop offset="1" stop-color="#9BEA27"/>
</linearGradient>
<linearGradient id="paint2_linear_5_619" x1="201.977" y1="118.765" x2="323.93" y2="118.765" gradientUnits="userSpaceOnUse">
<stop stop-color="#0B0D0C"/>
<stop offset="0.45" stop-color="#242925"/>
<stop offset="1" stop-color="#090B0A"/>
</linearGradient>
<linearGradient id="paint3_linear_5_619" x1="219.651" y1="122.567" x2="219.651" y2="313.009" gradientUnits="userSpaceOnUse">
<stop stop-color="#FFFDF7"/>
<stop offset="1" stop-color="#E9E4D8"/>
</linearGradient>
</defs>
</svg>
